<?xml version="1.0" encoding="UTF-8" standalone="no"?>
<svg
    xmlns:cc="http://creativecommons.org/ns#"
    xmlns:svg="http://www.w3.org/2000/svg"
    xmlns="http://www.w3.org/2000/svg"
    version="1.1"
    xml:space="preserve"
    width="100"
    height="100"
    viewBox="0 0 100 100"
    class="share"
>
    <circle cx="50" cy="50" r="38" class="svg-icon"  />

    <path
   d="M68.1,28.3c-2.4-2.5-5.6-3.9-9.1-4c-3.7-0.1-7.1,1.5-9.7,4.1l-6,6c1.4-0.3,2.9-0.3,4.3-0.1c0.7,0.1,1.3,0.2,2,0.4   c0,0,0,0,0,0c0.8,0.3,1.7,0.1,2.3-0.5l1.6-1.6c1.2-1.2,2.8-2.1,4.6-2.2c2.3-0.2,4.4,0.7,5.9,2.5c2.4,2.8,2,7-0.6,9.6l-8,8   c-0.8,0.8-1.9,1.4-3,1.8c-0.6,0.2-1.1,0.2-1.7,0.3l-0.2,0c-0.5,0-0.9,0-1.4-0.1c-1.3-0.3-2.5-0.9-3.5-1.9c-0.8-0.8-1.4-1.9-1.8-3   c-0.3,0.2-0.6,0.4-0.9,0.7l-1.6,1.6c-1.4,1.4-1.4,3.6-0.1,4.9c0,0,0,0,0,0c1.1,1.1,2.3,1.9,3.6,2.5c0.5,0.3,1.1,0.5,1.8,0.7   c0.7,0.2,1.3,0.4,2,0.4c0.6,0.1,1.2,0.1,1.8,0.1c2.1,0,4.2-0.5,6.1-1.5c1-0.5,1.9-1.2,2.6-1.9c0.2-0.1,0.3-0.3,0.5-0.4l7.9-7.9   C72.6,41.7,73,33.5,68.1,28.3z"
    style="stroke-width:3; fill:none"
   class="svg-icon" />

    <path
   d="M48.7,61.8c-0.7-0.1-1.3-0.2-2-0.4c0,0,0,0,0,0c-1-0.3-2.1-0.1-2.9,0.7l-1.5,1.5c-1.2,1.2-2.8,2-4.5,2.2   c-2.1,0.2-4.1-0.5-5.5-2c-1.5-1.5-2.2-3.5-2-5.5c0.1-1.7,1-3.3,2.2-4.5l8-8c0.8-0.8,1.9-1.4,3-1.8c0.5-0.2,1.1-0.2,1.7-0.3l0.3,0   c0.5,0,0.9,0,1.4,0.1c1.3,0.3,2.5,0.9,3.5,1.9c0.8,0.8,1.4,1.9,1.7,3c0.3-0.2,0.6-0.4,0.8-0.7l1.6-1.6c1.3-1.3,1.4-3.6,0.1-4.9   c0,0,0,0,0,0c-1.1-1.1-2.3-1.9-3.6-2.5c-0.5-0.3-1.1-0.5-1.8-0.7c-0.7-0.2-1.3-0.4-2-0.4c-2.7-0.4-5.5,0.1-7.9,1.4   c-1,0.5-1.9,1.2-2.6,1.8c-0.2,0.1-0.3,0.2-0.5,0.4l-7.9,7.9c-5,5-5.4,13.2-0.5,18.3c2.4,2.5,5.6,3.9,9.1,4c3.7,0.1,7.1-1.5,9.7-4.1   l5.8-5.8c-0.7,0.1-1.3,0.2-2,0.2C49.9,61.9,49.3,61.9,48.7,61.8z"
    style="stroke-width:3;fill:none"
   class="svg-icon" />
    
    <!--
    <path
           d="m 14.101,42.314 c -1.87,0 -3.628,-0.729 -4.95,-2.051 L 7.736,38.85 c -2.729,-2.729 -2.729,-7.171 0,-9.899 l 9.192,-9.192 c 1.322,-1.322 3.08,-2.051 4.95,-2.051 1.87,0 3.628,0.729 4.949,2.051 l 1.414,1.414 c 0.391,0.391 0.391,1.023 0,1.414 -0.391,0.391 -1.023,0.391 -1.414,0 l -1.414,-1.414 c -0.944,-0.944 -2.2,-1.465 -3.535,-1.465 -1.336,0 -2.592,0.521 -3.536,1.465 L 9.15,30.364 c -1.949,1.949 -1.949,5.121 0,7.071 l 1.414,1.414 c 0.944,0.944 2.2,1.465 3.536,1.465 1.335,0 2.591,-0.521 3.535,-1.465 L 24,32.485 c 0.391,-0.391 1.023,-0.391 1.414,0 0.391,0.391 0.391,1.023 0,1.414 l -6.364,6.364 c -1.321,1.323 -3.079,2.051 -4.949,2.051 z"
           class="svg-icon" />
   <path
           d="m 54.222832,2.0305532 c 0,-1.87000004 -0.729,-3.6280001 -2.051,-4.95 l -1.413,-1.415 c -2.729,-2.729 -7.171,-2.729 -9.899,0 l -9.192,9.192 c -1.322,1.3219999 -2.051,3.0799995 -2.051,4.9499995 0,1.8700003 0.729,3.6280003 2.051,4.9490003 l 1.414,1.414 c 0.391,0.391 1.023,0.391 1.414,0 0.391,-0.391 0.391,-1.023 0,-1.414 l -1.414,-1.414 c -0.944,-0.944 -1.465,-2.2 -1.465,-3.5350003 0,-1.336 0.521,-2.5919998 1.465,-3.5359996 l 9.191,-9.1919999 c 1.949,-1.949 5.121,-1.949 7.071,0 l 1.414,1.4139999 c 0.944,0.94400006 1.465,2.20000006 1.465,3.5360001 0,1.335 -0.521,2.591 -1.465,3.5349999 l -6.364,6.3649999 c -0.391,0.391 -0.391,1.023 0,1.414 0.391,0.391 1.023,0.391 1.414,0 l 6.364,-6.3640001 c 1.323,-1.3209998 2.051,-3.0789997 2.051,-4.9489997 z"
           inkscape:connector-curvature="0" />

    <path
           d="m 26.808149,10.899619 -1.890272,1.775992 -2.194783,2.134963 c -0.391,0.391 -0.391,1.01525 0,1.40625 0.391,0.391 1.01525,0.391 1.40625,0 1.633698,-1.671384 0.368689,-0.213935 1.909733,-1.861747 l 2.175322,-2.049208 c 0.402493,-0.379159 0.391,-1.01525 0,-1.40625 -0.576433,-0.450832 -0.883584,-0.237575 -1.40625,0 z"
           inkscape:connector-curvature="0"
           sodipodi:nodetypes="cccsccscc" />

    <path
           d="m 39.49053,9.5823862 c -0.253813,0 -0.492,0.08575 -0.6875,0.28125 -0.391,0.3909998 -0.391,1.0152508 0,1.4062508 0.944,0.944 1.46875,2.19625 1.46875,3.53125 0,1.336 -0.52475,2.58725 -1.46875,3.53125 l -4.5625,4.5625 -0.1875,0.1875 -4.5625,4.5625 c -0.944,0.944 -2.19525,1.46875 -3.53125,1.46875 -1.335,0 -2.58725,-0.52475 -3.53125,-1.46875 -0.391,-0.391 -1.01525,-0.391 -1.40625,0 -0.391,0.391 -0.391,1.01525 0,1.40625 1.321,1.322 3.0685,2.0625 4.9375,2.0625 1.87,0 3.6165,-0.7405 4.9375,-2.0625 l 4.53125,-4.5 0.125,-0.15625 0.15625,-0.125 4.5,-4.53125 c 1.322,-1.321 2.0625,-3.0675 2.0625,-4.9375 0,-1.869 -0.7405,-3.6165 -2.0625,-4.9375008 -0.1955,-0.1955 -0.464938,-0.28125 -0.71875,-0.28125 z"
           inkscape:connector-curvature="0" />
    -->    

</svg>