<?xml version="1.0" encoding="UTF-8" standalone="no"?>
 <svg
    xmlns:cc="http://creativecommons.org/ns#"
    xmlns:svg="http://www.w3.org/2000/svg"
    xmlns="http://www.w3.org/2000/svg"
    version="1.1"
    xml:space="preserve"
    width="100"
    height="100"
    viewBox="0 0 100 100">
     
    <circle cx="50" cy="50" r="38" class="svg-icon"  />
    <path
   d="m 46.188493,74.13447 c -2.310594,-0.730745 -4.134756,-1.710258 -5.809616,-3.119559 -0.763494,-0.642438 -1.980944,-1.232963 -2.705444,-1.312277 -1.800163,-0.197073 -2.311068,-0.717416 -3.13243,-3.19031 -0.388304,-1.169074 -1.077647,-2.324483 -1.531872,-2.567575 -1.373796,-0.735236 -0.959703,-1.6352 0.994513,-2.161416 1.196262,-0.322121 2.267406,-0.353277 3.124243,-0.09088 1.232944,0.377576 1.306361,0.333018 1.349751,-0.819224 0.05306,-1.409085 -0.05902,-1.439134 -2.134069,-0.572125 -1.704199,0.71206 -5.453093,0.880153 -5.453093,0.244506 0,-0.221041 -0.387838,-0.524985 -0.861861,-0.675436 -1.164676,-0.369652 -1.085327,-1.572209 0.194889,-2.953584 0.873079,-0.942067 1.433755,-1.140251 3.225862,-1.140251 2.048507,0 2.231719,-0.09461 3.295115,-1.701505 l 1.126002,-1.701505 -1.104977,-2.284598 c -1.318161,-2.725368 -2.135143,-7.451378 -1.764586,-10.207626 0.147027,-1.0936 0.654937,-3.198472 1.12869,-4.677492 l 0.861369,-2.68913 -1.128357,-2.306279 c -0.620596,-1.268454 -1.169057,-2.870165 -1.218799,-3.559358 -0.08013,-1.110124 0.03246,-1.234814 0.986884,-1.092988 0.592528,0.08805 3.634647,0.199703 6.760264,0.248121 3.712758,0.05751 5.902179,0.269983 6.315328,0.61287 0.53216,0.441649 0.748056,0.17662 1.362093,-1.672073 0.880312,-2.65037 1.941197,-2.780896 2.552321,-0.314024 0.267499,1.079788 0.64305,1.611412 1.138341,1.611412 0.866272,0 1.399574,1.677932 1.017339,3.200874 -0.144422,0.575424 -0.135541,1.446503 0.01974,1.935733 0.279273,0.879905 0.29938,0.877916 1.862665,-0.184363 0.86919,-0.590631 2.007134,-1.073873 2.528762,-1.073873 0.521628,0 2.27036,-1.064098 3.886072,-2.364662 1.61571,-1.300564 3.27701,-2.367116 3.69178,-2.370116 0.86961,-0.0063 0.8966,0.149857 0.35328,2.04431 -0.24718,0.86186 -0.24718,1.397678 0,1.397678 0.60891,0 0.45003,2.230656 -0.24555,3.44744 -0.33872,0.592528 -0.62273,1.484964 -0.63112,1.983191 -0.008,0.498226 -0.49512,1.564777 -1.0816,2.370115 -0.58648,0.805338 -1.24499,1.860057 -1.46336,2.34382 -0.21837,0.483764 -0.70812,1.137743 -1.08833,1.453288 -1.197706,0.99401 -0.839263,2.347155 0.86486,3.264885 2.02466,1.090357 4.33597,3.940357 5.34132,6.586237 3.25939,8.57801 -0.41038,18.357841 -8.40572,22.401012 -4.294883,2.171879 -10.358228,2.878272 -14.220691,1.656736 z m 8.483934,-1.846229 c -0.311076,-0.124483 -0.682753,-0.109176 -0.825947,0.034 -0.143193,0.143194 0.111323,0.245044 0.565596,0.226333 0.502008,-0.02068 0.604121,-0.122789 0.260351,-0.260351 z m 4.355651,-1.503304 c 3.639874,-1.836693 6.458244,-5.20212 7.829494,-9.349231 0.9668,-2.923943 0.76446,-8.574688 -0.38783,-10.830527 -1.70431,-3.336536 -5.779769,-6.390431 -7.701053,-5.770691 -0.519797,0.167668 -2.108598,0.554116 -3.530667,0.858773 -1.422069,0.304657 -3.118856,0.684444 -3.770638,0.843971 -1.462184,0.357878 -1.5576,-0.456652 -0.361916,-3.089566 0.442315,-0.973989 1.118492,-2.85197 1.50261,-4.173295 0.432279,-1.486989 1.117199,-2.731837 1.797491,-3.266955 0.6045,-0.475501 1.521011,-1.409336 2.036687,-2.075191 0.636549,-0.82192 0.178638,-0.565238 -1.426106,0.799411 -1.512513,1.286213 -3.062026,3.21323 -4.302894,5.351188 -1.883711,3.245558 -3.970603,5.402604 -4.60913,4.764076 -0.172666,-0.172666 -0.109156,-0.644476 0.141132,-1.048467 0.250289,-0.403992 0.720782,-1.162634 1.045542,-1.685873 0.528559,-0.851591 0.480879,-1.068 -0.454725,-2.063905 -0.740972,-0.788728 -1.067195,-1.665567 -1.120771,-3.012463 -0.04731,-1.189547 -0.416066,-2.332766 -0.98625,-3.057638 -1.07507,-1.366729 -1.0747,-1.363359 -0.310098,-2.828789 0.571297,-1.094944 0.545161,-1.150907 -0.649051,-1.38975 -0.719047,-0.143808 -1.244317,-0.526277 -1.244317,-0.906031 0,-0.361443 -0.320933,-0.657169 -0.713185,-0.657169 -0.663625,0 -0.663625,0.05476 0,0.788059 0.798611,0.882455 0.946449,2.464352 0.269415,2.882783 -0.244074,0.150845 -1.123455,-0.322507 -1.954181,-1.051893 -1.369939,-1.202823 -2.34228,-1.666145 -2.34228,-1.116099 0,0.115533 0.775674,0.699721 1.72372,1.298196 2.019826,1.27506 2.171435,1.829857 0.551537,2.018294 -1.007025,0.117144 -1.276541,0.470297 -1.912858,2.506472 -0.755864,2.418716 -1.072176,8.187671 -0.448931,8.187671 0.18942,0 0.265163,-0.678715 0.16832,-1.508255 -0.136812,-1.171892 -0.02141,-1.508256 0.51746,-1.508256 0.381448,0 0.693542,0.279434 0.693542,0.620964 0,0.341529 0.214694,0.753651 0.477097,0.915824 0.316858,0.19583 0.384912,0.0044 0.202623,-0.56993 -0.441232,-1.390197 0.856876,-1.528414 1.753705,-0.186725 0.426112,0.637479 0.731625,1.304492 0.678917,1.48225 -0.05271,0.177759 0.146566,0.330172 0.442831,0.338696 0.296264,0.0085 1.09666,0.471836 1.778657,1.029585 1.398488,1.143707 1.17548,2.162949 -0.407057,1.860428 -0.614481,-0.117465 -1.096544,0.04582 -1.240155,0.420062 -0.159559,0.415804 -0.546688,0.515189 -1.206648,0.309775 -0.971018,-0.302233 -0.971111,-0.301773 -0.128487,0.641336 0.842776,0.943278 0.843405,0.94331 1.171171,0.05727 0.382707,-1.034552 0.91166,-1.127966 1.611586,-0.284606 0.276266,0.33288 0.893021,0.49901 1.379895,0.37169 0.756765,-0.197899 0.86041,-0.05554 0.738283,1.01408 -0.108602,0.951157 -0.395875,1.279405 -1.219397,1.39332 -0.592529,0.08196 -1.310418,0.340382 -1.595309,0.574266 -0.284891,0.233883 -0.866646,0.316688 -1.29279,0.184011 -0.426144,-0.132676 -1.043993,-0.07221 -1.372999,0.134353 -0.456876,0.286857 -0.200705,0.638629 1.084377,1.489055 2.264263,1.498419 4.446104,1.928749 4.976226,0.981473 0.61328,-1.09587 1.217006,-0.843977 1.217006,0.507774 0,1.661423 -2.438825,5.220483 -4.061487,5.92707 -0.728826,0.317363 -1.069674,0.584617 -0.757438,0.593895 0.385475,0.01146 0.472043,0.318259 0.269691,0.955816 -0.293098,0.92347 -0.276209,0.921691 1.024443,-0.107732 0.72735,-0.575676 1.333184,-1.352005 1.346297,-1.725173 0.01311,-0.373173 1.102886,-1.9245 2.421718,-3.447396 2.134215,-2.464455 2.368976,-2.922899 2.13512,-4.169471 -0.219318,-1.169071 -0.131309,-1.400569 0.532452,-1.400569 1.193607,0 1.823636,0.859206 1.880118,2.564034 0.04622,1.395058 0.08125,1.347982 0.397693,-0.534473 0.441535,-2.626635 1.744344,-5.15334 2.731872,-5.298278 0.566993,-0.08322 0.684968,0.07421 0.456101,0.60864 -0.1698,0.39649 -0.402532,1.842827 -0.517185,3.214083 -0.273732,3.273831 0.557154,4.368922 3.001518,3.95595 2.053731,-0.346976 2.171599,0.374004 0.343266,2.099654 -0.711035,0.671104 -1.29279,1.397669 -1.29279,1.614591 0,0.216921 -0.727194,0.394538 -1.615988,0.394706 -1.419643,2.67e-4 -1.623538,0.131162 -1.678132,1.077326 -0.06828,1.183364 0.4722,1.452626 0.864377,0.430624 0.136423,-0.355518 0.54501,-0.646396 0.907965,-0.646396 0.362955,0 0.659918,0.290878 0.659918,0.646396 0,1.296448 0.874133,0.593528 1.982898,-1.594519 0.62456,-1.232504 1.605465,-2.950989 2.179788,-3.818855 0.897528,-1.356252 0.973218,-1.733796 0.538774,-2.687301 -0.568142,-1.246935 -0.279984,-2.457112 0.585074,-2.457112 0.63009,0 1.60835,2.315606 1.60835,3.807081 0,0.519665 -0.21777,1.293552 -0.48394,1.719752 -0.37302,0.597295 -0.32363,1.084906 0.21546,2.127402 2.23294,4.318024 -0.61321,10.194476 -6.410939,13.236669 -1.185058,0.621824 -1.669854,0.998836 -1.077326,0.837802 0.592529,-0.161035 1.81326,-0.664141 2.712731,-1.118018 z M 38.477857,39.581218 c -0.446683,-1.164037 -0.288396,-2.334871 0.315654,-2.334871 0.543649,0 1.577426,1.707767 1.577426,2.605857 0,0.688198 -1.613645,0.457212 -1.89308,-0.270986 z m 18.250718,29.52862 c 4.150666,-2.212282 6.324097,-5.833953 5.315997,-8.858246 l -0.391027,-1.173096 -1.176499,2.007549 c -1.332996,2.274582 -2.24415,2.658127 -5.558197,2.339691 C 53.3064,63.2708 52.4928,62.948412 51.915732,62.235766 50.547849,60.546503 51.817582,58.284926 54.51958,57.597933 L 56.099883,57.196134 54.9098,56.869188 c -0.996866,-0.273861 -1.591575,-0.02778 -3.662905,1.515636 -2.780624,2.071933 -3.519688,2.689301 -5.288798,4.417921 -1.324244,1.293936 -3.984314,2.011578 -4.480482,1.208759 -0.162626,-0.26313 -0.5019,-0.478423 -0.753945,-0.478423 -0.313002,0 -0.306157,0.183274 0.02159,0.578191 0.26392,0.318005 0.550212,1.220865 0.636204,2.006351 0.102574,0.936955 0.554165,1.717951 1.312982,2.270709 4.005494,2.917802 9.393729,3.194812 14.034125,0.721506 z m -17.69393,-1.861433 c 1.012238,-1.219674 -0.806254,-3.715324 -2.707225,-3.715324 -0.580066,0 -0.578211,0.179909 0.01666,1.615987 1.115871,2.693819 1.772186,3.205915 2.690563,2.099337 z m 3.224437,-6.107822 c 0.147161,-0.383493 0.07492,-0.556469 -0.169361,-0.405496 -0.234296,0.144801 -0.425994,0.445753 -0.425994,0.668777 0,0.619863 0.308876,0.483271 0.595355,-0.263281 z m 21.2115,-0.938234 c -0.1432,-0.143193 -0.24504,0.111327 -0.22633,0.565596 0.0207,0.502012 0.12279,0.60412 0.26035,0.260355 0.12448,-0.311076 0.10918,-0.682752 -0.034,-0.825951 z M 35.310349,58.593442 c 0.829739,-0.346688 1.637441,-0.966051 1.794892,-1.376365 0.268485,-0.69966 0.236615,-0.701078 -0.512848,-0.02284 -0.640974,0.580075 -1.086626,0.640741 -2.251861,0.306559 -1.10118,-0.315815 -1.331898,-0.295803 -0.953395,0.0827 0.364247,0.364248 0.371255,0.653682 0.0259,1.069806 -0.624469,0.752443 3.57e-4,0.732723 1.897312,-0.05987 z m 8.76302,-1.137056 c 0.89697,-0.991143 0.72534,-1.214146 -1.171325,-1.521932 -1.081339,-0.175477 -1.752753,-0.001 -2.619366,0.680676 -0.640923,0.50415 -1.074579,1.153093 -0.963679,1.442092 0.316486,0.824749 3.870724,0.375582 4.75437,-0.600836 z m 4.772526,0.187315 c 0,-0.316013 -0.0409,-0.574571 -0.09088,-0.574571 -0.04998,0 -0.305461,0.258558 -0.567732,0.574571 -0.356339,0.429367 -0.333372,0.574577 0.09088,0.574577 0.312252,0 0.567734,-0.258557 0.567734,-0.574577 z m 5.278893,-2.143448 c 0.09876,-0.08516 -0.434519,-0.154843 -1.185058,-0.154843 -0.800883,0 -1.367336,-0.222524 -1.371211,-0.538662 -0.0045,-0.364136 -0.136712,-0.332915 -0.408181,0.09636 -0.535499,0.846779 0.304081,1.344492 1.703992,1.010147 0.594499,-0.141986 1.161702,-0.327836 1.260458,-0.413 z m 1.226039,-0.590026 c -0.302698,-0.484696 -0.612093,-0.652521 -0.702571,-0.381091 -0.08893,0.266762 0.104359,0.653543 0.429512,0.859514 0.848609,0.53756 0.876753,0.488249 0.273059,-0.478423 z m -16.27268,-0.211212 c 0.295053,-0.355518 0.439501,-0.646395 0.320995,-0.646395 -0.118505,0 -0.456872,0.290877 -0.751925,0.646395 -0.295054,0.355518 -0.439501,0.646395 -0.320995,0.646395 0.118506,0 0.456872,-0.290877 0.751925,-0.646395 z m 3.3568,-0.392134 c -0.06866,-0.03696 -0.422628,-0.292472 -0.78661,-0.567793 -0.535222,-0.404849 -0.661786,-0.352656 -0.661786,0.272913 0,0.536671 0.24084,0.710515 0.786611,0.567792 0.432635,-0.113136 0.730438,-0.235947 0.661785,-0.272912 z M 40.056438,47.62091 c 0.143419,-0.548436 0.03323,-0.759119 -0.325107,-0.621613 -0.298131,0.114405 -0.857938,-0.107874 -1.244016,-0.493951 -0.417171,-0.417173 -0.701958,-0.498959 -0.701958,-0.20159 0,0.372296 1.541831,2.018978 1.996658,2.132436 0.03161,0.0079 0.1551,-0.358992 0.274423,-0.815282 z m 25.739374,-0.611847 c 0,-0.08178 -0.43632,-0.51809 -0.96959,-0.969593 l -0.9696,-0.820917 0.82092,0.969593 c 0.77146,0.911178 1.11827,1.165769 1.11827,0.820917 z M 40.064868,44.572158 c -0.130998,-0.500937 -0.01322,-0.86186 0.281242,-0.86186 0.278641,0 0.373978,-0.214622 0.211858,-0.476937 -0.18005,-0.291327 -0.399579,-0.316474 -0.564095,-0.06461 -0.148132,0.226777 -0.5377,0.498536 -0.865708,0.603908 -0.480064,0.15422 -0.45305,0.334912 0.138514,0.926475 0.945693,0.945694 1.073385,0.925381 0.798189,-0.12697 z m 2.185625,-0.215465 c -0.262262,-0.683445 -1.017696,-0.896697 -1.017696,-0.287287 0,0.455715 0.471044,0.933683 0.920158,0.933683 0.19007,0 0.233963,-0.290879 0.09754,-0.646396 z m 7.720539,-5.583117 c 0.390604,-0.819106 1.433281,-2.289661 2.317063,-3.267901 1.67094,-1.849531 2.181605,-3.430489 1.108089,-3.430489 -0.360792,0 -0.521585,-0.257729 -0.384182,-0.615793 0.129963,-0.338687 0.363744,-1.295123 0.519507,-2.125414 0.258894,-1.380019 0.205572,-1.489319 -0.621125,-1.273132 -0.74285,0.194258 -0.904337,0.04143 -0.904337,-0.855853 0,-0.600786 -0.12837,-1.426873 -0.285272,-1.835747 -0.216878,-0.565178 -0.462641,-0.289757 -1.025091,1.148803 -0.734887,1.879578 -0.732982,1.898553 0.285271,2.842236 0.662977,0.614429 1.025092,1.431253 1.025092,2.312303 0,1.272791 -0.08613,1.349636 -1.311295,1.16982 -1.07426,-0.157668 -1.54163,0.06988 -2.585577,1.258876 -1.514435,1.724845 -1.643121,3.421796 -0.381149,5.026133 1.15717,1.471102 1.390285,1.434327 2.243006,-0.353842 z m 10.47279,-0.989842 c -0.197134,-0.197134 -2.835684,1.111023 -2.835684,1.405893 0,0.108585 0.67628,-0.125069 1.502847,-0.51923 0.826563,-0.394161 1.42634,-0.793159 1.332837,-0.886663 z m 2.33548,-1.183782 c 0.29505,-0.355517 0.4395,-0.646396 0.32099,-0.646396 -0.1185,0 -0.45687,0.290879 -0.75192,0.646396 -0.29506,0.355517 -0.439505,0.646395 -0.321,0.646395 0.11851,0 0.45687,-0.290878 0.75193,-0.646395 z m 1.14113,-3.795417 1.65991,-1.767072 -1.78204,1.550427 c -0.98012,0.852735 -2.454164,1.793469 -3.275646,2.09052 -0.821482,0.297051 -1.730288,0.919089 -2.019571,1.382305 -0.893262,1.430341 3.489737,-1.204129 5.417347,-3.25618 z m -16.654614,0.322544 c 0,-0.104519 -0.302322,-0.190033 -0.671827,-0.190033 -0.369505,0 -0.550024,0.197081 -0.401154,0.437959 0.245977,0.398 1.072981,0.206909 1.072981,-0.247926 z m 15.765544,-2.38512 c 0.60084,-0.663924 0.16417,-0.521016 -1.642916,0.537677 -1.353689,0.79307 -2.54971,1.662635 -2.657817,1.932366 -0.275028,0.686214 3.305253,-1.370055 4.300733,-2.470043 z m -16.115674,1.469783 c -0.311078,-0.124484 -0.682755,-0.109174 -0.82595,0.03402 -0.143194,0.143194 0.111324,0.245045 0.565596,0.226333 0.502009,-0.02067 0.60412,-0.12279 0.260354,-0.260354 z m 3.79715,-1.306452 c 4.31e-4,-0.619994 -1.356954,-1.415684 -2.415164,-1.415684 -0.738827,0 -2.324646,1.163501 -2.324646,1.705572 0,0.153562 1.066363,0.268946 2.369696,0.256408 1.559109,-0.015 2.369835,-0.201865 2.370114,-0.546296 z"
   />
</svg>